<svg xmlns="http://www.w3.org/2000/svg" xmlns:xlink="http://www.w3.org/1999/xlink" width="24" height="33" viewBox="0 0 24 33">
  <defs>
    <clipPath id="clip-path">
      <rect id="crop" width="24" height="33" fill="#337357"/>
    </clipPath>
    <clipPath id="clip-path-2">
      <path id="Path_3" data-name="Path 3" d="M14.45,15.619H13.308a.017.017,0,0,0-.019.016v4.291a.017.017,0,0,0,.019.017H14.45a.017.017,0,0,0,.018-.017V15.636A.018.018,0,0,0,14.45,15.619Zm0-6.482H13.308a.017.017,0,0,0-.019.016v4.288a.017.017,0,0,0,.019.017H14.45a.017.017,0,0,0,.018-.017V9.154A.016.016,0,0,0,14.45,9.137Zm-3.536,6.482H9.772a.017.017,0,0,0-.019.016v4.291a.017.017,0,0,0,.019.017h1.142a.017.017,0,0,0,.018-.017V15.636A.018.018,0,0,0,10.914,15.619Zm0-6.482H9.772a.017.017,0,0,0-.019.016v4.288a.017.017,0,0,0,.019.017h1.142a.017.017,0,0,0,.018-.017V9.154A.016.016,0,0,0,10.914,9.137ZM7.375,15.619H6.233a.017.017,0,0,0-.019.016v4.291a.017.017,0,0,0,.019.017H7.375a.017.017,0,0,0,.018-.017V15.636A.018.018,0,0,0,7.375,15.619Zm0-6.482H6.233a.017.017,0,0,0-.019.016v4.288a.017.017,0,0,0,.019.017H7.375a.017.017,0,0,0,.018-.017V9.154A.016.016,0,0,0,7.375,9.137ZM3.839,15.619H2.7a.017.017,0,0,0-.019.016v4.291a.017.017,0,0,0,.019.017H3.839a.017.017,0,0,0,.018-.017V15.636A.018.018,0,0,0,3.839,15.619Zm0-6.482H2.7a.017.017,0,0,0-.019.016v4.288a.017.017,0,0,0,.019.017H3.839a.017.017,0,0,0,.018-.017V9.154A.016.016,0,0,0,3.839,9.137Zm20.017-8a.753.753,0,0,0-.265-.4A.971.971,0,0,0,22.95.49H8.339a.957.957,0,0,0-1.009.9V5.912H1.147A.954.954,0,0,0,.322,6.956V7.03a.952.952,0,0,0,.825,1.043H16a.954.954,0,0,0,.825-1.043V6.956A.952.952,0,0,0,16,5.912H9.684V2.651H21.514V32.239a.92.92,0,0,0,1.01.786h.335a.916.916,0,0,0,1.009-.786V1.949a.887.887,0,0,0,.029-.226V1.416A.777.777,0,0,0,23.856,1.132Z" transform="translate(-0.322 -0.49)" fill="#337357"/>
    </clipPath>
  </defs>
  <g id="矢量智能对象" transform="translate(-191 -319)">
    <g id="矢量智能对象-2" data-name="矢量智能对象" transform="translate(191 319)" clip-path="url(#clip-path)">
      <g id="Group_6" data-name="Group 6" transform="translate(0.203 0.274)">
        <g id="Group_5" data-name="Group 5" clip-path="url(#clip-path-2)">
          <rect id="Rectangle_3" data-name="Rectangle 3" width="32.147" height="40.393" transform="translate(-4.286 -3.928)" fill="#337357"/>
        </g>
      </g>
    </g>
    <path id="Color_Overlay" data-name="Color Overlay" d="M21.969,32.17a.909.909,0,0,1-1-.778V2.136H9.265V5.361h6.253a.942.942,0,0,1,.817,1.032v.073A.944.944,0,0,1,15.518,7.5H.817A.942.942,0,0,1,0,6.466V6.393A.944.944,0,0,1,.817,5.361H6.936V.888a.946.946,0,0,1,1-.888H22.391a.962.962,0,0,1,.634.237.745.745,0,0,1,.262.4.77.77,0,0,1,.04.28v.3a.858.858,0,0,1-.029.223v29.95a.907.907,0,0,1-1,.778ZM12.85,19.235a.017.017,0,0,1-.019-.017V14.975a.017.017,0,0,1,.019-.016h1.13a.018.018,0,0,1,.017.016v4.242a.016.016,0,0,1-.017.017Zm-3.5,0a.017.017,0,0,1-.019-.017V14.975c0-.01.007-.016.019-.016h1.129a.018.018,0,0,1,.018.016v4.242a.017.017,0,0,1-.018.017Zm-3.5,0a.017.017,0,0,1-.019-.017V14.975c0-.01.008-.016.019-.016H6.98A.018.018,0,0,1,7,14.975v4.242a.017.017,0,0,1-.018.017Zm-3.5,0a.017.017,0,0,1-.019-.017V14.975a.017.017,0,0,1,.019-.016h1.13a.018.018,0,0,1,.018.016v4.242a.017.017,0,0,1-.018.017Zm10.5-6.412a.018.018,0,0,1-.019-.017V8.566a.017.017,0,0,1,.019-.016h1.13A.016.016,0,0,1,14,8.566v4.239a.017.017,0,0,1-.017.017Zm-3.5,0a.017.017,0,0,1-.019-.017V8.566c0-.01.007-.016.019-.016h1.129a.016.016,0,0,1,.018.016v4.239a.017.017,0,0,1-.018.017Zm-3.5,0a.018.018,0,0,1-.019-.017V8.566c0-.01.008-.016.019-.016H6.98A.016.016,0,0,1,7,8.566v4.239a.017.017,0,0,1-.018.017Zm-3.5,0a.018.018,0,0,1-.019-.017V8.566a.017.017,0,0,1,.019-.016h1.13a.016.016,0,0,1,.018.016v4.239a.017.017,0,0,1-.018.017Z" transform="translate(191.321 319.49)" fill="#337357"/>
  </g>
</svg>
