<svg xmlns="http://www.w3.org/2000/svg" xmlns:xlink="http://www.w3.org/1999/xlink" width="48" height="53" viewBox="0 0 48 53">
  <defs>
    <style>
      .cls-1 {
        fill: #337357;
      }

      .cls-2 {
        clip-path: url(#clip-path);
      }

      .cls-3 {
        clip-path: url(#clip-path-2);
      }

      .cls-4 {
        clip-path: url(#clip-path-3);
      }
    </style>
    <clipPath id="clip-path">
      <rect id="crop" class="cls-1" width="48" height="53"/>
    </clipPath>
    <clipPath id="clip-path-2">
      <path id="Path_78" data-name="Path 78" class="cls-1" d="M11.471,16.884a2.547,2.547,0,0,1-2.556-2.54V3.641a2.555,2.555,0,0,1,5.111,0v10.7A2.55,2.55,0,0,1,11.471,16.884ZM37.24,51.937A2.545,2.545,0,0,1,34.685,49.4V22.618a2.555,2.555,0,0,1,5.111,0V49.393A2.544,2.544,0,0,1,37.24,51.937Zm-25.769,0A2.546,2.546,0,0,1,8.915,49.4V22.618a2.555,2.555,0,0,1,5.111,0V49.393A2.55,2.55,0,0,1,11.471,51.937Z"/>
    </clipPath>
    <clipPath id="clip-path-3">
      <path id="Path_79" data-name="Path 79" class="cls-1" d="M37.24,6.186c-4.016,0-5.477,5.54-5.477,9.263,0,2.157.625,4.628,5.477,4.628s5.477-2.476,5.477-4.628C42.717,14.5,42.563,6.186,37.24,6.186Zm0,18.975c-6.635,0-10.593-3.632-10.593-9.712C26.647,8.537,29.964,1.1,37.24,1.1c6.435,0,10.593,5.63,10.593,14.347C47.833,21.53,43.875,25.162,37.24,25.162Zm-25.769,0A11.166,11.166,0,0,1,.281,14.042V3.641a2.555,2.555,0,0,1,5.111,0v10.4a6.073,6.073,0,0,0,12.145,0V3.641a2.555,2.555,0,0,1,5.111,0v10.4A11.157,11.157,0,0,1,11.471,25.162Z"/>
    </clipPath>
  </defs>
  <g id="矢量智能对象" class="cls-2">
    <g id="Group_146" data-name="Group 146">
      <g id="Group_145" data-name="Group 145" class="cls-3">
        <rect id="Rectangle_73" data-name="Rectangle 73" class="cls-1" width="44.214" height="64.086" transform="translate(2.248 -5.523)"/>
      </g>
    </g>
    <g id="Group_148" data-name="Group 148">
      <g id="Group_147" data-name="Group 147" class="cls-4">
        <rect id="Rectangle_74" data-name="Rectangle 74" class="cls-1" width="60.885" height="37.31" transform="translate(-6.385 -5.523)"/>
      </g>
    </g>
  </g>
</svg>
