<svg xmlns="http://www.w3.org/2000/svg" xmlns:xlink="http://www.w3.org/1999/xlink" width="42" height="51" viewBox="0 0 42 51">
  <defs>
    <style>
      .cls-1 {
        fill: none;
      }

      .cls-2 {
        clip-path: url(#clip-path);
      }

      .cls-3 {
        clip-path: url(#clip-path-2);
      }

      .cls-4 {
        clip-path: url(#clip-path-3);
      }

      .cls-5 {
        clip-path: url(#clip-path-4);
      }
    </style>
    <clipPath id="clip-path">
      <rect id="crop" class="cls-1" width="42" height="51"/>
    </clipPath>
    <clipPath id="clip-path-2">
      <path id="Path_19" data-name="Path 19" class="cls-1" d="M4.015,47.205V14.16H37.985l0,33.046Zm0-43.411H37.985v7.026H4.015ZM37.985.455H4.015a3.371,3.371,0,0,0-3.4,3.339V47.205a3.371,3.371,0,0,0,3.4,3.339H37.985a3.371,3.371,0,0,0,3.4-3.339V3.795A3.371,3.371,0,0,0,37.985.455Z"/>
    </clipPath>
    <clipPath id="clip-path-3">
      <path id="Path_20" data-name="Path 20" class="cls-1" d="M21,40.527A10.019,10.019,0,1,1,31.191,30.509,10.116,10.116,0,0,1,21,40.527Zm0-23.375A13.359,13.359,0,1,0,34.588,30.509,13.49,13.49,0,0,0,21,17.152Z"/>
    </clipPath>
    <clipPath id="clip-path-4">
      <path id="Path_21" data-name="Path 21" class="cls-1" d="M34.588,5.812H27.794a1.67,1.67,0,1,0,0,3.339h6.794a1.67,1.67,0,1,0,0-3.339ZM17.8,23.122h0a7.92,7.92,0,0,0-2.584,1.7h0a7.773,7.773,0,0,0-1.732,2.543,1.661,1.661,0,0,0,.923,2.182,1.729,1.729,0,0,0,.646.128,1.7,1.7,0,0,0,1.569-1.031A4.525,4.525,0,0,1,19.1,26.208a1.66,1.66,0,0,0,.92-2.181,1.71,1.71,0,0,0-2.22-.9Z"/>
    </clipPath>
  </defs>
  <g id="矢量智能对象" class="cls-2">
    <g id="Group_38" data-name="Group 38">
      <g id="Group_37" data-name="Group 37" class="cls-3">
        <rect id="Rectangle_19" data-name="Rectangle 19" width="53.118" height="62.232" transform="translate(-5.559 -5.616)"/>
      </g>
    </g>
    <g id="Group_40" data-name="Group 40">
      <g id="Group_39" data-name="Group 39" class="cls-4">
        <rect id="Rectangle_20" data-name="Rectangle 20" width="39.529" height="38.857" transform="translate(1.235 11.08)"/>
      </g>
    </g>
    <g id="Group_42" data-name="Group 42">
      <g id="Group_41" data-name="Group 41" class="cls-5">
        <rect id="Rectangle_21" data-name="Rectangle 21" width="35.281" height="36.005" transform="translate(7.182 -0.26)"/>
      </g>
    </g>
  </g>
</svg>
