<svg xmlns="http://www.w3.org/2000/svg" xmlns:xlink="http://www.w3.org/1999/xlink" width="47" height="47" viewBox="0 0 47 47">
  <defs>
    <style>
      .cls-1 {
        fill: none;
      }

      .cls-2 {
        clip-path: url(#clip-path);
      }

      .cls-3 {
        clip-path: url(#clip-path-2);
      }

      .cls-4 {
        clip-path: url(#clip-path-3);
      }

      .cls-5 {
        clip-path: url(#clip-path-4);
      }
    </style>
    <clipPath id="clip-path">
      <rect id="crop" class="cls-1" width="47" height="47"/>
    </clipPath>
    <clipPath id="clip-path-2">
      <path id="Path_16" data-name="Path 16" class="cls-1" d="M37.716,36.3H12.256a1.821,1.821,0,1,0,0,3.641h25.46A1.821,1.821,0,1,0,37.716,36.3Z"/>
    </clipPath>
    <clipPath id="clip-path-3">
      <path id="Path_17" data-name="Path 17" class="cls-1" d="M11.3,3.974H35.918V29.7H7.885a6.917,6.917,0,0,0-3.9,1.215V11.28A7.32,7.32,0,0,1,11.3,3.974ZM42.944,9.188V41.433a1.5,1.5,0,0,1-1.5,1.5H8.688a4.726,4.726,0,0,1-4.7-4.8c0-2.6,1.787-4.79,3.9-4.79H37.741a1.818,1.818,0,0,0,1.818-1.818V2.156A1.82,1.82,0,0,0,37.741.333H11.3A10.96,10.96,0,0,0,.348,11.28V38.225a8.175,8.175,0,0,0,.134,1.494c.669,3.89,3.732,6.844,7.4,6.844H41.443a5.144,5.144,0,0,0,5.135-5.135V9.2A1.817,1.817,0,1,0,42.944,9.188Z"/>
    </clipPath>
    <clipPath id="clip-path-4">
      <path id="Path_18" data-name="Path 18" class="cls-1" d="M37.741,36.316H12.274a1.822,1.822,0,1,0,0,3.641H37.735a1.821,1.821,0,0,0,.006-3.641Z"/>
    </clipPath>
  </defs>
  <g id="矢量智能对象" class="cls-2">
    <g id="Group_32" data-name="Group 32">
      <g id="Group_31" data-name="Group 31" class="cls-3">
        <rect id="Rectangle_16" data-name="Rectangle 16" width="42.962" height="17.464" transform="translate(3.506 29.392)"/>
      </g>
    </g>
    <g id="Group_34" data-name="Group 34">
      <g id="Group_33" data-name="Group 33" class="cls-4">
        <rect id="Rectangle_17" data-name="Rectangle 17" width="60.054" height="60.054" transform="translate(-6.563 -6.578)"/>
      </g>
    </g>
    <g id="Group_36" data-name="Group 36">
      <g id="Group_35" data-name="Group 35" class="cls-5">
        <rect id="Rectangle_18" data-name="Rectangle 18" width="42.995" height="17.464" transform="translate(3.462 29.404)"/>
      </g>
    </g>
  </g>
</svg>
