<svg xmlns="http://www.w3.org/2000/svg" width="396.867" height="47.611" viewBox="0 0 396.867 47.611">
  <g id="Header_Logo_" data-name="Header Logo " transform="translate(0 0.013)">
    <path id="Path_5" data-name="Path 5" d="M24.454,36.365c-.339,1.9-.62,6.637-1.015,10.431-.881-.134-3.049-.207-5.759-.339-2.776-.066-6.5-.066-9.889-.066-2.1,0-6.979.207-7.791.207l.068-.738,2.371-.351c1.015-.207,1.286-.54,1.354-1.691.207-2.371.413-8.062.413-15.04V17.938c0-6.977-.068-9.686-.136-11.177,0-.949-.413-1.288-1.49-1.354L.548,5.2.62,4.459c1.559,0,4.81.207,7.113.207s4.548-.134,6.842-.207l.134.744-2.381.271c-.949.136-1.354.542-1.354,1.7-.136,2.776-.339,7.991-.339,14.767v6.972c0,7.384,0,13.548.207,15.443,0,.678.62,1.085,2.642,1.085,4.676,0,6.5-.542,7.855-2.642a26.428,26.428,0,0,0,2.437-6.64Z" transform="translate(0 -1.835)" fill="#363638"/>
    <path id="Path_6" data-name="Path 6" d="M59.047,4.295c-1.964,0-3.252,1.422-4.4,4.064-1.151,2.778-2.166,9.213-2.166,16.394,0,7.113.949,14.36,2.235,17.2,1.354,3.049,2.642,4,4.674,4s3.32-1.017,4.548-4.548c1.083-3.047,1.829-9.145,1.829-15.987,0-6.774-.746-13.411-2.032-17-1.017-2.846-2.371-4.134-4.608-4.134Zm.413-.881C70.1,3.414,73.077,15.2,73.077,24.007c0,14.226-4.341,22.964-13.819,22.964C49.1,46.97,45.167,37.081,45.167,25.5c0-11.177,4.2-22.083,14.226-22.083Z" transform="translate(-18.532 -1.406)" fill="#363638"/>
    <path id="Path_7" data-name="Path 7" d="M93.159,4.171c1.354,0,4.4.207,6.842.207,2.3,0,4.808-.207,6.908-.207l.271.746-2.3.413c-.812.136-1.083.339-.881,1.22.542,2.844,4.876,19.983,7.648,31.091,3.115-10.838,6.5-24.185,7.442-30.413.207-1.288-.271-1.761-1.017-1.9a24.745,24.745,0,0,0-2.776-.413l-.271-.746c1.015,0,3.318.207,5.011.207s2.981-.207,5.217-.207l.207.746c-2.913,0-3.721.812-4.945,4.4-2.292,7.384-6.83,24.725-9.941,37.526a7.88,7.88,0,0,0-3.117,0C103.8,31.674,99.393,15.619,97.091,7.626c-.542-2.166-1.083-2.642-3.928-2.708Z" transform="translate(-38.223 -1.717)" fill="#363638"/>
    <path id="Path_8" data-name="Path 8" d="M149.328,18.257c0-6.977,0-8.874-.066-10.567-.136-1.9-.61-2.1-3.659-2.371l.068-.744c1.422,0,4.267.207,6.706.207s5.486-.207,6.977-.207l.068.744c-2.778.136-3.32.475-3.386,1.9-.068,1.49-.207,4.945-.207,10.77V32.414c0,6.166.207,9.35.271,11.247.068,1.827.61,2.1,3.456,2.3l-.136.812c-1.559-.068-4.341-.207-7.045-.207-2.439,0-5.759.136-6.842.207l.068-.812c2.913-.136,3.388-.544,3.514-2.237.136-1.354.207-4.341.207-11.313Z" transform="translate(-59.712 -1.882)" fill="#363638"/>
    <path id="Path_9" data-name="Path 9" d="M172.292,4.487c1.424,0,5.691.207,8.13.207h7.994a37.574,37.574,0,0,0,6.637-.413c-.134,1.9-.207,7.648-.134,9.55l-.746.136a18.217,18.217,0,0,0-1.286-5.42c-.883-2.032-2.1-2.844-6.5-2.844h-2.642c-.62,0-.746.339-.814,1.083-.134,2.168-.271,5.893-.271,10.5v6.908c.746.068,2.3.068,3.049.068,4.134,0,5.418-1.354,5.691-5.149h.744a81.81,81.81,0,0,0-.068,12.2h-.744c-.61-4.2-1.288-5.893-5.554-5.893a23.529,23.529,0,0,0-3.117.068v5.625c0,4.537.136,10.365.271,12.735.136,1.286.62,1.625,4,1.625,4.341,0,5.352-.339,6.908-2.168,1.627-1.827,2.371-4.74,2.981-6.977l.62.271c-.068,1.559-1.151,8.806-1.422,10.23a88.92,88.92,0,0,0-9.957-.339h-6.04c-2.776,0-6.571.207-8.062.207l.134-.744,2.371-.339c.949-.136,1.354-.542,1.49-2.1.207-2.71.271-6.774.271-12.328V19.052c0-6.979-.068-10.094-.207-12.2,0-1.083-.61-1.356-1.7-1.49l-2.032-.134Z" transform="translate(-70.553 -1.761)" fill="#363638"/>
    <path id="Path_10" data-name="Path 10" d="M239.139,28.579c.814.068,2.71.068,4.2.068,1.627,0,3.32,0,3.861-.068-1.083-5.689-2.642-14.158-3.591-19.17-1.147,4.81-2.642,10.635-4.471,19.17m21.949,18.29c-.949-.068-3.928-.134-6.908-.134-2.507,0-4.608.066-6.91.134l.134-.812c2.576-.339,3.049-.473,2.846-1.829-.413-2.235-1.693-8.738-2.778-14.36-.812-.068-2.642-.068-4.341-.068s-3.454,0-4.341.068c-1.9,7.925-2.439,10.635-2.778,12.6-.339,2.71.271,3.183,4.269,3.591v.812c-1.356,0-2.915-.207-4.878-.207-1.354,0-3.928.207-5.691.207v-.812c2.913-.271,3.514-.744,4.4-3.928,1.9-6.706,7.181-27.906,8.74-34.072a17.78,17.78,0,0,0,.542-2.846,20.176,20.176,0,0,0,5.352-1.151c1.422,8.682,7.52,36.445,8.738,40.1.413,1.153.881,1.559,1.693,1.7l1.9.207Z" transform="translate(-94.251 -1.671)" fill="#363638"/>
    <path id="Path_11" data-name="Path 11" d="M297.414,44.9c3.591,0,7.113-1.288,7.442-9.957.413-10.7.134-23.1-.068-26.893-.136-2.507-.881-2.71-2.1-2.913l-2.292-.273-.068-.812c1.151,0,3.32.207,5.013.207,1.559,0,2.981-.134,4.945-.207l.207.812-1.9.207c-1.288.134-1.693.812-1.761,2.642-.339,8.062-.339,22.286-.744,27.906-.339,4.81-1.829,7.247-3.456,8.672-1.964,1.829-4.469,2.574-7.789,2.574-4.269,0-7.648-1.22-9.484-4.064-1.288-2.032-1.627-4.134-1.693-8.682-.068-6.367.134-23.912,0-26.825,0-1.625-.339-2.032-1.22-2.166l-2.17-.263V4.056c2.1,0,4.269.207,6.64.207,2.437,0,5.079-.207,6.637-.207l.068.746-2.032.339c-.881.134-1.083.61-1.151,1.693-.339,5.757-.62,19.915-.136,30.008.136,3.117.62,4.674,1.627,5.893a6.919,6.919,0,0,0,5.418,2.168Z" transform="translate(-114.998 -1.669)" fill="#363638"/>
    <path id="Path_12" data-name="Path 12" d="M342.858,24.406h1.015c6.232,0,6.776-4.608,6.776-10.094a16.852,16.852,0,0,0-.949-6.3,4.632,4.632,0,0,0-4.471-2.778,7.119,7.119,0,0,0-1.422.136c-.339.068-.61.339-.678,1.015-.068,1.085-.271,3.861-.271,11.652Zm-6.367-4.742c0-8.2-.068-11.45-.136-13.074-.068-.949-.475-1.151-1.422-1.288l-2.507-.271.207-.744c1.151,0,3.8.207,6.1.207,2.032,0,4.548-.207,7.113-.207,5.42,0,7.789.947,9.279,2.505a9.815,9.815,0,0,1,2.3,6.91c0,6.706-4.341,9.823-9.959,10.77v.271c7.52,1.017,10.094,4.81,10.365,10.162.136,2.844.339,6.1.413,7.318.134,2.571,1.083,3.589,2.574,3.589a2.586,2.586,0,0,0,1.288-.271l-.207.881a15.234,15.234,0,0,1-3.252.413c-5.079,0-7.315-2.371-7.586-8.333-.134-2.1-.271-5.081-.413-6.976-.339-4.878-1.627-6.234-6.776-6.234h-1.015v6.1c0,6.977.136,9.891.271,12.2.068,1.625.271,1.827,3.591,2.1l-.136.812c-1.557,0-4.341-.207-6.774-.207-2.235,0-5.215.207-7.113.207v-.812c2.71-.136,3.388-.475,3.514-1.9.207-1.354.273-4.945.273-13.887Z" transform="translate(-136.395 -1.764)" fill="#363638"/>
    <path id="Path_13" data-name="Path 13" d="M399.384,4.295c-1.964,0-3.252,1.422-4.4,4.064-1.151,2.778-2.166,9.213-2.166,16.394,0,7.113.949,14.36,2.235,17.2,1.356,3.049,2.642,4,4.674,4s3.32-1.017,4.548-4.548c1.083-3.047,1.829-9.145,1.829-15.987,0-6.774-.746-13.411-2.032-17-1.017-2.846-2.371-4.134-4.608-4.134Zm.413-.881c10.635,0,13.616,11.783,13.616,20.593,0,14.226-4.341,22.964-13.819,22.964-10.162,0-14.092-9.889-14.092-21.473,0-11.177,4.2-22.083,14.226-22.083Z" transform="translate(-158.173 -1.406)" fill="#363638"/>
    <path id="Path_14" data-name="Path 14" d="M448.766,24.406h1.015c6.232,0,6.774-4.608,6.774-10.094a16.859,16.859,0,0,0-.947-6.3,4.632,4.632,0,0,0-4.471-2.778,7.16,7.16,0,0,0-1.424.136c-.337.068-.608.339-.676,1.015-.068,1.085-.271,3.861-.271,11.652ZM442.4,19.664c0-8.2-.066-11.45-.134-13.074-.068-.949-.475-1.151-1.422-1.288l-2.507-.271.207-.744c1.151,0,3.8.207,6.1.207,2.032,0,4.548-.207,7.113-.207,5.418,0,7.789.947,9.279,2.505a9.814,9.814,0,0,1,2.3,6.91c0,6.706-4.341,9.823-9.957,10.77v.271c7.52,1.017,10.094,4.81,10.365,10.162.136,2.844.339,6.1.413,7.318.134,2.571,1.083,3.589,2.574,3.589a2.592,2.592,0,0,0,1.288-.271l-.207.881a15.234,15.234,0,0,1-3.252.413c-5.079,0-7.316-2.371-7.586-8.333-.136-2.1-.271-5.081-.413-6.977-.337-4.878-1.625-6.234-6.774-6.234h-1.015v6.1c0,6.977.134,9.891.271,12.2.068,1.625.271,1.827,3.591,2.1l-.136.812c-1.559,0-4.341-.207-6.774-.207-2.235,0-5.215.207-7.113.207v-.812c2.71-.136,3.388-.475,3.514-1.9.207-1.354.271-4.945.271-13.887Z" transform="translate(-179.849 -1.764)" fill="#363638"/>
    <path id="Path_15" data-name="Path 15" d="M496.79,28.579c.812.068,2.71.068,4.2.068,1.627,0,3.32,0,3.861-.068-1.083-5.689-2.642-14.158-3.591-19.17-1.151,4.81-2.642,10.635-4.469,19.17m21.947,18.29c-.949-.068-3.927-.134-6.908-.134-2.507,0-4.608.066-6.91.134l.136-.812c2.574-.339,3.047-.473,2.844-1.829-.413-2.235-1.693-8.738-2.778-14.36-.812-.068-2.642-.068-4.341-.068s-3.454,0-4.341.068c-1.9,7.925-2.439,10.635-2.778,12.6-.339,2.71.271,3.183,4.269,3.591v.812c-1.356,0-2.915-.207-4.878-.207-1.354,0-3.927.207-5.691.207v-.812c2.915-.271,3.514-.744,4.4-3.928,1.9-6.706,7.181-27.906,8.74-34.072a17.556,17.556,0,0,0,.542-2.846A20.176,20.176,0,0,0,506.4,4.059c1.422,8.682,7.518,36.445,8.738,40.1.413,1.153.881,1.559,1.7,1.7l1.9.207Z" transform="translate(-199.965 -1.671)" fill="#363638"/>
    <path id="Path_16" data-name="Path 16" d="M625.763,19.386l-6.1,6.1-.885.883H589.539l-.887-.885-6.1-6.1a8.63,8.63,0,0,1,12.2-12.2l6.1,6.1,3.307,3.307,3.307-3.307,6.1-6.1a8.63,8.63,0,1,1,12.2,12.2M604.155,40.994,594.2,31.039h19.906Zm24.9-37.111a13.31,13.31,0,0,0-18.811,0l-6.1,6.1-6.1-6.1a13.3,13.3,0,0,0-18.811,18.811l3.688,3.688h-3.605v4.665h8.268L604.137,47.6l16.551-16.551h8.268V26.373h-3.607l3.688-3.688a13.31,13.31,0,0,0,0-18.811" transform="translate(-236.063)" fill="#363638"/>
  </g>
</svg>
