<svg xmlns="http://www.w3.org/2000/svg" width="20" height="20" viewBox="0 0 20 20">
  <g id="OutlinedSearch" transform="translate(-2 -2)">
    <g id="Group_4" data-name="Group 4">
      <g id="Group_3" data-name="Group 3">
        <path id="Path_2" data-name="Path 2" d="M9,4a4.951,4.951,0,0,1,5,5,4.951,4.951,0,0,1-5,5A4.951,4.951,0,0,1,4,9,4.951,4.951,0,0,1,9,4M9,2a7,7,0,1,0,7,7A6.957,6.957,0,0,0,9,2Z" fill="#8c8a8a"/>
      </g>
    </g>
    <g id="Group_5" data-name="Group 5">
      <path id="Path_3" data-name="Path 3" d="M22,20.3,20.3,22,14,15.7V14h1.7Z" fill="#8c8a8a"/>
      <rect id="Rectangle_2" data-name="Rectangle 2" width="1.2" height="3.6" transform="translate(12.693 13.574) rotate(-45)" fill="#8c8a8a"/>
    </g>
  </g>
</svg>
