<svg xmlns="http://www.w3.org/2000/svg" xmlns:xlink="http://www.w3.org/1999/xlink" width="37.041" height="37.041" viewBox="0 0 37.041 37.041">
  <defs>
    <style>
      .cls-1 {
        fill: #337357;
      }

      .cls-2 {
        clip-path: url(#clip-path);
      }

      .cls-3 {
        clip-path: url(#clip-path-2);
      }
    </style>
    <clipPath id="clip-path">
      <rect id="crop" class="cls-1" width="37.041" height="37.041"/>
    </clipPath>
    <clipPath id="clip-path-2">
      <path id="Path_33" data-name="Path 33" class="cls-1" d="M3.7,26.98c.029,4.127,2.946,6.219,8.67,6.219H24.679c5.725,0,8.641-2.093,8.671-6.219l-.9-11.58H4.6Zm20.978,9.48H12.371C4.843,36.46.527,32.982.527,26.914h0c0-.044,0-.087,0-.13l1.025-13.15a1.607,1.607,0,0,1,1.582-1.5H33.91a1.606,1.606,0,0,1,1.582,1.5l1.025,13.15c0,.043.005.088.005.13,0,6.066-4.317,9.546-11.843,9.546ZM26.218,15.1a1.61,1.61,0,0,1-1.587-1.633c0-5.263-2.8-9.711-6.107-9.711S12.418,8.2,12.418,13.464a1.587,1.587,0,1,1-3.173,0C9.245,6.189,13.32.49,18.525.49c5.117,0,9.28,5.82,9.28,12.974A1.611,1.611,0,0,1,26.218,15.1Z"/>
    </clipPath>
  </defs>
  <g id="矢量智能对象" class="cls-2">
    <g id="Group_66" data-name="Group 66">
      <g id="Group_65" data-name="Group 65" class="cls-3">
        <rect id="Rectangle_33" data-name="Rectangle 33" class="cls-1" width="44.414" height="44.389" transform="translate(-3.683 -3.72)"/>
      </g>
    </g>
  </g>
</svg>
