<svg xmlns="http://www.w3.org/2000/svg" xmlns:xlink="http://www.w3.org/1999/xlink" width="37" height="42" viewBox="0 0 37 42">
  <defs>
    <style>
      .cls-1 {
        fill: none;
      }

      .cls-2 {
        clip-path: url(#clip-path);
      }

      .cls-3 {
        clip-path: url(#clip-path-2);
      }
    </style>
    <clipPath id="clip-path">
      <rect id="crop" class="cls-1" width="37" height="42"/>
    </clipPath>
    <clipPath id="clip-path-2">
      <path id="Path_38" data-name="Path 38" class="cls-1" d="M26.815,39.442H10.648V35.358H26.815ZM2.415,23.508l-.022-.022a2.215,2.215,0,0,1,3.133-3.132l0,0,5.053,5a.859.859,0,0,0,1.426-.863L7.413,9.508a2.215,2.215,0,0,1,4.235-1.3l3.128,10.2a.859.859,0,0,0,1.681-.252V4.7a2.214,2.214,0,1,1,4.429,0v11.16a.859.859,0,0,0,1.652.333l3.118-7.421a2.214,2.214,0,1,1,4.083,1.716L25.187,21.324a.86.86,0,0,0,1.475.856l3.864-5.036a2.215,2.215,0,0,1,3.514,2.7l-.021.028c-.018.025-1.761,2.5-3.5,5.216-3.215,5.015-3.672,6.518-3.725,7.2a6.442,6.442,0,0,1-.283,1.35H10.7a13.9,13.9,0,0,0-2.924-4.37Zm26.092,8.918c.019-.267.323-1.52,3.457-6.408,1.653-2.58,3.312-4.947,3.451-5.145a3.934,3.934,0,0,0-6.079-4.985l1.988-4.73a3.934,3.934,0,0,0-7.253-3.047L22.6,11.6V4.7a3.933,3.933,0,1,0-7.867,0v7.722l-1.447-4.72A3.933,3.933,0,0,0,5.77,10.012l3.594,11.72-2.626-2.6a3.933,3.933,0,0,0-5.572,5.553l5.366,5.763.022.022A12.144,12.144,0,0,1,9.028,34.1a.853.853,0,0,0-.1.4v5.8a.859.859,0,0,0,.859.859H27.674a.86.86,0,0,0,.86-.859V34.5a.855.855,0,0,0-.292-.644,8.5,8.5,0,0,0,.263-1.4Z"/>
    </clipPath>
  </defs>
  <g id="矢量智能对象" class="cls-2">
    <g id="Group_74" data-name="Group 74">
      <g id="Group_73" data-name="Group 73" class="cls-3">
        <rect id="Rectangle_37" data-name="Rectangle 37" width="46.189" height="50.391" transform="translate(-4.974 -4.23)"/>
      </g>
    </g>
  </g>
</svg>
