<svg xmlns="http://www.w3.org/2000/svg" xmlns:xlink="http://www.w3.org/1999/xlink" width="52.738" height="31.643" viewBox="0 0 52.738 31.643">
  <defs>
    <style>
      .cls-1 {
        fill: #337357;
      }

      .cls-2 {
        clip-path: url(#clip-path);
      }

      .cls-3 {
        clip-path: url(#clip-path-2);
      }
    </style>
    <clipPath id="clip-path">
      <rect id="crop" class="cls-1" width="52.738" height="31.643"/>
    </clipPath>
    <clipPath id="clip-path-2">
      <path id="Path_31" data-name="Path 31" class="cls-1" d="M34.045.3S29.837,10.95,21.18,17.017C15.854,20.75,2.733,22.925,2.733,22.925a1.663,1.663,0,0,0-1.557,1.751,12.7,12.7,0,0,0-.079,2.04,5.989,5.989,0,0,0,.294,1.62,1.657,1.657,0,0,0,1.655,1.557.655.655,0,0,0,.1-.005,60.239,60.239,0,0,0,11.745,1.45c.492,0,.985-.011,1.461-.034A152.9,152.9,0,0,0,39.631,27.73a1.354,1.354,0,0,0,.595-.165v3.349h9.648a67.438,67.438,0,0,0,1.8-13.558,57.041,57.041,0,0,0-1.8-13.075s-3.213,3.1-5.207,3.189c-.113.007-.232.007-.351.007a16.587,16.587,0,0,1-3.524-.465c-.022-2.475-.051-4.282-.079-4.282Zm1.507,3.626,2.323.849c.005.56.017,1.3.022,2.272l.022,2.272,2.215.516a19.511,19.511,0,0,0,4.176.538c.16,0,.318-.005.476-.011A7.218,7.218,0,0,0,48,9.312a46.753,46.753,0,0,1,.775,8.033,59.019,59.019,0,0,1-1.235,10.679h-4.43v-5.28L39.116,24.88l-.165.04a151.674,151.674,0,0,1-22.751,3.5c-.414.022-.856.034-1.314.034A56.624,56.624,0,0,1,4.06,27.135a3.913,3.913,0,0,1-.074-.589,7.96,7.96,0,0,1,.005-.906c1.23-.227,3.773-.72,6.686-1.467,5.574-1.428,9.664-3.043,12.163-4.787a34.7,34.7,0,0,0,6.181-5.643,46.153,46.153,0,0,0,4.289-5.829c.945-1.519,1.693-2.9,2.243-3.988"/>
    </clipPath>
  </defs>
  <g id="矢量智能对象" class="cls-2">
    <g id="Group_62" data-name="Group 62">
      <g id="Group_61" data-name="Group 61" class="cls-3">
        <rect id="Rectangle_31" data-name="Rectangle 31" class="cls-1" width="63.772" height="44.224" transform="translate(-5.51 -6.294)"/>
      </g>
    </g>
  </g>
</svg>
