<svg xmlns="http://www.w3.org/2000/svg" xmlns:xlink="http://www.w3.org/1999/xlink" width="31.245" height="42.404" viewBox="0 0 31.245 42.404">
  <defs>
    <style>
      .cls-1 {
        fill: none;
      }

      .cls-2 {
        fill: #337357;
      }

      .cls-3 {
        clip-path: url(#clip-path);
      }

      .cls-4 {
        clip-path: url(#clip-path-2);
      }
    </style>
    <clipPath id="clip-path">
      <rect id="crop" class="cls-1" width="31.245" height="42.404"/>
    </clipPath>
    <clipPath id="clip-path-2">
      <path id="Path_24" data-name="Path 24" class="cls-1" d="M15.622,28.363A12.275,12.275,0,1,0,3.348,16.088,12.275,12.275,0,0,0,15.622,28.363Zm-1.279,5.114v-2.1a15.338,15.338,0,1,1,3.069-.05v2.149H21.76a1.534,1.534,0,0,1,0,3.069H17.412v3.708a1.534,1.534,0,0,1-3.069,0V36.545H9.485a1.534,1.534,0,0,1,0-3.069Z"/>
    </clipPath>
  </defs>
  <g id="矢量智能对象" transform="translate(-2587.301 -328)">
    <g id="矢量智能对象-2" data-name="矢量智能对象" class="cls-3" transform="translate(2587.301 328)">
      <g id="Group_48" data-name="Group 48">
        <g id="Group_47" data-name="Group 47" class="cls-4">
          <rect id="Rectangle_24" data-name="Rectangle 24" width="41.846" height="52.203" transform="translate(-5.3 -4.835)"/>
        </g>
      </g>
    </g>
    <path id="Color_Overlay" data-name="Color Overlay" class="cls-2" d="M2601.645,368.253v-3.708h-4.858a1.535,1.535,0,1,1,0-3.069h4.858v-2.1a15.339,15.339,0,1,1,3.069-.05v2.149h4.348a1.535,1.535,0,0,1,0,3.069h-4.348v3.708a1.534,1.534,0,1,1-3.069,0Zm-11-24.166a12.275,12.275,0,1,0,12.275-12.274A12.275,12.275,0,0,0,2590.648,344.087Z"/>
  </g>
</svg>
