<svg xmlns="http://www.w3.org/2000/svg" xmlns:xlink="http://www.w3.org/1999/xlink" width="54" height="54" viewBox="0 0 54 54">
  <defs>
    <style>
      .cls-1 {
        fill: none;
      }

      .cls-2 {
        clip-path: url(#clip-path);
      }

      .cls-3 {
        clip-path: url(#clip-path-2);
      }
    </style>
    <clipPath id="clip-path">
      <rect id="crop" class="cls-1" width="54" height="54"/>
    </clipPath>
    <clipPath id="clip-path-2">
      <path id="Path_57" data-name="Path 57" class="cls-1" d="M40.329,40.665l1.791,1.793-4.479,4.479-1.791-1.793Zm-.9-2.685-5.374,5.374-1.793-1.791,5.374-5.377Zm-7.167,3.583,5.374,5.374,2.689,2.689,8.433-8.436c2.475-2.475,2.475-3.951,0-6.426l-5.657-5.656L44.9,27.315,51.08,33.5a6.335,6.335,0,0,1,0,8.96l-8.96,8.959-1.791,1.791-1.791-1.791-8.871-8.871,1.791-1.791.807.809ZM7.177,16.475l3.584-3.584,1.793,1.791L8.969,18.267l-.213-.212,2,2,5.376-5.377,1.793,1.793L12.552,21.85l.548.548-1.793,1.791L2.7,15.579l1.793-1.793,2.688,2.689ZM19.351,5.353c-2.475-2.475-3.953-2.475-6.427,0L2.7,15.579.906,13.786,11.657,3.036a6.335,6.335,0,0,1,8.96,0l5.921,5.922L24.747,10.75l-5.4-5.4ZM48.77,9.373,44.443,5.048c-2.475-2.475-3.95-2.475-6.423,0L34.961,8.109,45.712,18.858,48.771,15.8c2.473-2.475,2.473-3.951,0-6.426ZM12.153,30.915,22.905,41.668,43.92,20.651,33.168,9.9ZM4.259,49.32l15.273-4.28,1.579-1.582L10.361,32.706,8.764,34.3Z"/>
    </clipPath>
  </defs>
  <g id="矢量智能对象" class="cls-2">
    <g id="Group_108" data-name="Group 108">
      <g id="Group_107" data-name="Group 107" class="cls-3">
        <rect id="Rectangle_54" data-name="Rectangle 54" width="65.529" height="65.529" transform="translate(-5.844 -5.57)"/>
      </g>
    </g>
  </g>
</svg>
