<svg xmlns="http://www.w3.org/2000/svg" xmlns:xlink="http://www.w3.org/1999/xlink" width="56" height="56" viewBox="0 0 56 56">
  <defs>
    <style>
      .cls-1 {
        fill: #337357;
      }

      .cls-2 {
        clip-path: url(#clip-path);
      }

      .cls-3 {
        clip-path: url(#clip-path-2);
      }
    </style>
    <clipPath id="clip-path">
      <rect id="crop" class="cls-1" width="56" height="56"/>
    </clipPath>
    <clipPath id="clip-path-2">
      <path id="Path_54" data-name="Path 54" class="cls-1" d="M51.626,23.679H4.376A.877.877,0,0,1,3.5,22.8V18.429a3.5,3.5,0,0,1,3.5-3.5H49a3.5,3.5,0,0,1,3.5,3.5V22.8A.877.877,0,0,1,51.626,23.679Zm-3.5,28H33.688a.439.439,0,0,1-.438-.438V27.617a.439.439,0,0,1,.438-.438H48.562a.439.439,0,0,1,.438.438V50.8A.878.878,0,0,1,48.126,51.68Zm-18.813,0H26.688a.439.439,0,0,1-.438-.438V27.617a.439.439,0,0,1,.438-.438h2.624a.439.439,0,0,1,.438.438V51.243A.439.439,0,0,1,29.312,51.68Zm-7,0H7.876A.878.878,0,0,1,7,50.8V27.617a.439.439,0,0,1,.438-.438H22.312a.439.439,0,0,1,.438.438V51.243A.439.439,0,0,1,22.312,51.68ZM12.277,6.924C12.4,5.048,15.345,4.5,15.684,4.441c2.74-.459,6.432,1.061,9.335,6.338a.439.439,0,0,1-.383.65H17.09C13.978,10.719,12.169,8.559,12.277,6.924ZM40.628,4.441c.333.055,3.281.607,3.406,2.483.1,1.635-1.7,3.8-4.812,4.505H31.676a.438.438,0,0,1-.383-.65C34.2,5.5,37.881,3.976,40.628,4.441ZM46.7,11.429a.437.437,0,0,1-.36-.683A6.467,6.467,0,0,0,47.519,6.7a5.448,5.448,0,0,0-2.39-4.145A9.506,9.506,0,0,0,41.207.99a10.538,10.538,0,0,0-8,2.148,16.547,16.547,0,0,0-3.631,3.785,1.745,1.745,0,0,1-2.845,0A16.6,16.6,0,0,0,23.1,3.139,10.518,10.518,0,0,0,15.1.99a9.506,9.506,0,0,0-3.921,1.564A5.451,5.451,0,0,0,8.783,6.7a6.464,6.464,0,0,0,1.181,4.046.436.436,0,0,1-.361.683H7a7,7,0,0,0-7,7v7a1.747,1.747,0,0,0,1.75,1.75H3.062a.439.439,0,0,1,.438.438V51.68A3.5,3.5,0,0,0,7,55.18H49a3.5,3.5,0,0,0,3.5-3.5V27.617a.439.439,0,0,1,.438-.438H54.25A1.747,1.747,0,0,0,56,25.429v-7a7,7,0,0,0-7-7Z"/>
    </clipPath>
  </defs>
  <g id="矢量智能对象" class="cls-2">
    <g id="Group_102" data-name="Group 102">
      <g id="Group_101" data-name="Group 101" class="cls-3">
        <rect id="Rectangle_51" data-name="Rectangle 51" class="cls-1" width="68.727" height="67.045" transform="translate(-6.364 -5.501)"/>
      </g>
    </g>
  </g>
</svg>
