<svg xmlns="http://www.w3.org/2000/svg" xmlns:xlink="http://www.w3.org/1999/xlink" width="59" height="52" viewBox="0 0 59 52">
  <defs>
    <style>
      .cls-1 {
        fill: none;
      }

      .cls-2 {
        clip-path: url(#clip-path);
      }

      .cls-3 {
        clip-path: url(#clip-path-2);
      }
    </style>
    <clipPath id="clip-path">
      <rect id="crop" class="cls-1" width="59" height="52"/>
    </clipPath>
    <clipPath id="clip-path-2">
      <path id="Path_56" data-name="Path 56" class="cls-1" d="M34.416,22.861a1.982,1.982,0,0,0-2.735.559,2.963,2.963,0,0,1-2.165,1.261,2.788,2.788,0,0,1-2.108-1.236,1.971,1.971,0,0,0-2.714-.624,2,2,0,0,0-.637,2.746,6.717,6.717,0,0,0,5.459,3.1A6.831,6.831,0,0,0,35,25.59,1.992,1.992,0,0,0,34.416,22.861Zm2.842-9.027a1.987,1.987,0,0,0-1.979,1.994v1.945a1.979,1.979,0,1,0,3.957,0V15.827A1.986,1.986,0,0,0,37.258,13.833Zm-15.446,0a1.986,1.986,0,0,0-1.978,1.994v1.945a1.979,1.979,0,1,0,3.957,0V15.827A1.987,1.987,0,0,0,21.812,13.833ZM45.684,30.273,29.872,46.455a.46.46,0,0,1-.336.146.468.468,0,0,1-.336-.146L13.387,30.273a1.968,1.968,0,0,0-2.8-.025,2,2,0,0,0-.027,2.818L26.382,49.254a4.388,4.388,0,0,0,3.152,1.333h0a4.383,4.383,0,0,0,3.155-1.333L48.508,33.066a2,2,0,0,0-.025-2.818,1.97,1.97,0,0,0-2.8.025ZM57.755,14.414A16.632,16.632,0,0,0,49.644,2.178C43.368-1.52,35.205-.241,29.792,5.285l-.257.264-.258-.264C23.864-.241,15.7-1.52,9.425,2.178A16.807,16.807,0,0,0,5.907,28.349a1.969,1.969,0,0,0,2.8.019,2,2,0,0,0,.019-2.818,12.8,12.8,0,0,1,2.7-19.931C16.136,2.844,22.318,3.857,26.46,8.085l1.665,1.7a1.972,1.972,0,0,0,2.819,0l1.667-1.7c4.14-4.228,10.324-5.242,15.035-2.466a12.8,12.8,0,0,1,2.7,19.931,2,2,0,0,0,.018,2.818,1.968,1.968,0,0,0,2.8-.019,16.672,16.672,0,0,0,4.592-13.935Z"/>
    </clipPath>
  </defs>
  <g id="矢量智能对象" class="cls-2">
    <g id="Group_106" data-name="Group 106">
      <g id="Group_105" data-name="Group 105" class="cls-3">
        <rect id="Rectangle_53" data-name="Rectangle 53" width="71.487" height="65.366" transform="translate(-6.208 -7.351)"/>
      </g>
    </g>
  </g>
</svg>
