<svg xmlns="http://www.w3.org/2000/svg" xmlns:xlink="http://www.w3.org/1999/xlink" width="50" height="50" viewBox="0 0 50 50">
  <defs>
    <style>
      .cls-1 {
        fill: #337357;
      }

      .cls-2 {
        clip-path: url(#clip-path);
      }

      .cls-3 {
        clip-path: url(#clip-path-2);
      }
    </style>
    <clipPath id="clip-path">
      <rect id="crop" class="cls-1" width="50" height="50"/>
    </clipPath>
    <clipPath id="clip-path-2">
      <path id="Path_55" data-name="Path 55" class="cls-1" d="M36.656,35.838l.239.5s.458,3.053-5.9,2.639-10.052-2.172-11.728-3.2-4.334,1.706-1.677,3.242,14.534,6.645,19.417,2.9c4.708-3.612,4.883-6.58,3.4-8.437a.352.352,0,0,0-.172-.128q.837-.762,1.634-1.567c.636-.65,2.12-2.131,4.03-2.131a4,4,0,0,1,1.936.533,3.834,3.834,0,0,1,1.7,5.087,1.265,1.265,0,0,1-.12.206c0,.036-.027.036-.027.062l-.3.389c-5.6,6.991-7.689,9.927-8.447,11.144a5.609,5.609,0,0,1-4.083,2.492H22.077a4.193,4.193,0,0,1-1.908-.478h-.028l-.064-.062a56.4,56.4,0,0,0-7.653-4,59.992,59.992,0,0,0-8.566-.442A3.4,3.4,0,0,1,.438,41.23v-7.8a3.4,3.4,0,0,1,3.42-3.352,13.568,13.568,0,0,0,3.994-.767L8,29.253a14.982,14.982,0,0,1,4.389-.831c5.477,0,7.689,1.572,10.5,3.531l.148.119h0a36.713,36.713,0,0,0,3.328,2.192c1.183.714,6.236,1.273,9.414,1.455a5.41,5.41,0,0,1,.875.119Zm-7.045-4.827c-.119-.055-11.922-7.677-16.162-15.47a9.8,9.8,0,0,1-1.633-5.427A10.167,10.167,0,0,1,22.078.063c4.03,0,7.081,3.227,8.539,4.859C32.161,3.177,35.1.063,39.152.063A10.166,10.166,0,0,1,49.414,10.114a9.911,9.911,0,0,1-1.667,5.427C43.809,22.6,33.581,29.648,31.583,30.984l-.064.027a1.74,1.74,0,0,1-.969.3,1.919,1.919,0,0,1-.939-.3Z"/>
    </clipPath>
  </defs>
  <g id="矢量智能对象" class="cls-2">
    <g id="Group_104" data-name="Group 104">
      <g id="Group_103" data-name="Group 103" class="cls-3">
        <rect id="Rectangle_52" data-name="Rectangle 52" class="cls-1" width="65.125" height="65.125" transform="translate(-7.375 -7.75)"/>
      </g>
    </g>
  </g>
</svg>
