<svg xmlns="http://www.w3.org/2000/svg" xmlns:xlink="http://www.w3.org/1999/xlink" width="49" height="49" viewBox="0 0 49 49">
  <defs>
    <style>
      .cls-1 {
        fill: none;
      }

      .cls-2 {
        clip-path: url(#clip-path);
      }

      .cls-3 {
        clip-path: url(#clip-path-2);
      }
    </style>
    <clipPath id="clip-path">
      <rect id="crop" class="cls-1" width="49" height="49"/>
    </clipPath>
    <clipPath id="clip-path-2">
      <path id="Path_5" data-name="Path 5" class="cls-1" d="M43.274,30.812V44.6a.4.4,0,0,1-.4.4H29.085a.408.408,0,0,1-.4-.4V30.812a.4.4,0,0,1,.4-.4h13.8A.4.4,0,0,1,43.274,30.812ZM18.3,19.877h0a.405.405,0,0,1-.41.4H4.107a.4.4,0,0,1-.4-.4V6.085a.4.4,0,0,1,.4-.4H17.889a.408.408,0,0,1,.4.4ZM48.462,13.7,44.541,6.918a1.854,1.854,0,1,0-3.216,1.846l.006.009,3.921,6.779a.409.409,0,0,1-.147.547L33.16,22.992a.379.379,0,0,1-.3.039.39.39,0,0,1-.245-.184L25.732,10.9a.405.405,0,0,1,.147-.545l11.943-6.9A1.855,1.855,0,0,0,35.968.251l-11.952,6.9A4.074,4.074,0,0,0,22.1,9.653h0a4.021,4.021,0,0,0-.09.441V6.085h0a4.115,4.115,0,0,0-4.12-4.109H4.107A4.111,4.111,0,0,0,0,6.085V19.877H0a4.111,4.111,0,0,0,4.107,4.107H17.889a4.112,4.112,0,0,0,4.12-4.1V11.335a4.066,4.066,0,0,0,.49,1.423L29.408,24.7a4.067,4.067,0,0,0,2.941,2H29.085a4.115,4.115,0,0,0-4.11,4.107V44.6h0a4.118,4.118,0,0,0,4.11,4.11h13.8a4.115,4.115,0,0,0,4.107-4.11V30.812h0A4.112,4.112,0,0,0,42.887,26.7H33.6a4.068,4.068,0,0,0,1.413-.49L46.96,19.309a4.113,4.113,0,0,0,1.5-5.613Zm-30.173,30.9h0a.408.408,0,0,1-.4.41H4.107a.4.4,0,0,1-.4-.4V30.812a.4.4,0,0,1,.4-.4H17.889a.4.4,0,0,1,.4.4Zm-.4-17.889H4.107A4.111,4.111,0,0,0,0,30.812V44.6H0a4.115,4.115,0,0,0,4.107,4.11H17.889A4.116,4.116,0,0,0,22,44.6V30.812h0A4.113,4.113,0,0,0,17.889,26.7Z"/>
    </clipPath>
  </defs>
  <g id="矢量智能对象" class="cls-2">
    <g id="Group_10" data-name="Group 10">
      <g id="Group_9" data-name="Group 9" class="cls-3">
        <rect id="Rectangle_5" data-name="Rectangle 5" width="60.148" height="59.823" transform="translate(-5.568 -5.54)"/>
      </g>
    </g>
  </g>
</svg>
