<svg xmlns="http://www.w3.org/2000/svg" xmlns:xlink="http://www.w3.org/1999/xlink" width="59" height="59" viewBox="0 0 59 59">
  <defs>
    <style>
      .cls-1 {
        fill: #337357;
      }

      .cls-2 {
        clip-path: url(#clip-path);
      }

      .cls-3 {
        clip-path: url(#clip-path-2);
      }
    </style>
    <clipPath id="clip-path">
      <rect id="crop" class="cls-1" width="59" height="59"/>
    </clipPath>
    <clipPath id="clip-path-2">
      <path id="Path_58" data-name="Path 58" class="cls-1" d="M14.073,11.4a2.4,2.4,0,0,1,.276-.016,2.451,2.451,0,0,1,2,1.054,1.592,1.592,0,0,0,2.778-.312A2.455,2.455,0,0,1,21.1,10.588h0a2.356,2.356,0,0,1,1.769.507,2.462,2.462,0,0,1,.5,3.291l-4.695,5.956-5.881-4.684A2.431,2.431,0,0,1,14.073,11.4Zm3.564,12.178a2.118,2.118,0,0,0,1.226.4,2.187,2.187,0,0,0,.228-.013,2.16,2.16,0,0,0,1.395-.774L25.912,16.3A5.6,5.6,0,0,0,17.377,9.09,5.59,5.59,0,0,0,8.8,14.451a5.666,5.666,0,0,0,1.96,3.654ZM30.1,33.568A1.676,1.676,0,0,0,28.25,32.1L12.029,33.976a1.677,1.677,0,0,0-1.468,1.852l.027.233a1.677,1.677,0,0,0,1.852,1.468l16.221-1.876A1.677,1.677,0,0,0,30.129,33.8ZM11.618,30.424l16.221-1.876A1.676,1.676,0,0,0,29.307,26.7l-.028-.232A1.675,1.675,0,0,0,27.427,25L11.206,26.87a1.676,1.676,0,0,0-1.467,1.852l.027.233A1.676,1.676,0,0,0,11.618,30.424ZM55.7,22.695,49.262,52.868a2.652,2.652,0,0,1-3.148,2.04L22.091,49.783l1.195-5.605,4.031-.465a1.609,1.609,0,0,0-.165.429l-.048.229a1.674,1.674,0,0,0,1.285,1.983l15.97,3.407a1.676,1.676,0,0,0,1.983-1.286l.048-.229a1.676,1.676,0,0,0-1.285-1.983L31.1,43.275l1.236-.143h0a5.815,5.815,0,0,0,4.052-2.385l9.463,2.019a1.677,1.677,0,0,0,1.983-1.286l.05-.229A1.677,1.677,0,0,0,46.6,39.267l-9.1-1.942a6.146,6.146,0,0,0-.036-.662l-.33-2.859.638.99a2.118,2.118,0,0,0,1.264.83,1.988,1.988,0,0,0,.409.043,2.287,2.287,0,0,0,1.152-.333l7.34-4.788A5.638,5.638,0,0,0,49.4,22.915a5.569,5.569,0,0,0-7.244-1.932,5.548,5.548,0,0,0-6.69-1.577l-.444-3.836,18.636,3.974A2.665,2.665,0,0,1,55.7,22.695ZM3.413,6.871l24.4-2.82a2.649,2.649,0,0,1,2.939,2.331L34.3,37.029a2.656,2.656,0,0,1-2.332,2.941h0l-24.4,2.821ZM35.884,23.006a2.391,2.391,0,0,1,2.4-.889,2.447,2.447,0,0,1,1.828,1.714,1.592,1.592,0,0,0,2.734.59,2.461,2.461,0,0,1,2.363-.825,2.37,2.37,0,0,1,1.513,1.045,2.461,2.461,0,0,1-.581,3.277l-6.351,4.143-3.489-5.409ZM58,18.969a5.8,5.8,0,0,0-3.677-2.536l-19.685-4.2-.719-6.218A5.851,5.851,0,0,0,27.451.888l-25.984,3A1.593,1.593,0,0,0,.4,4.485h0A1.586,1.586,0,0,0,.068,5.656l4.52,39.082a1.592,1.592,0,0,0,1.578,1.409,1.733,1.733,0,0,0,.185-.011l13.6-1.572-1.3,6.111a1.59,1.59,0,0,0,1.224,1.888L45.45,58.021h0a5.846,5.846,0,0,0,6.924-4.491l6.438-30.173A5.79,5.79,0,0,0,58,18.969Z"/>
    </clipPath>
  </defs>
  <g id="矢量智能对象" class="cls-2">
    <g id="Group_110" data-name="Group 110">
      <g id="Group_109" data-name="Group 109" class="cls-3">
        <rect id="Rectangle_55" data-name="Rectangle 55" class="cls-1" width="72.293" height="70.711" transform="translate(-6.647 -5.855)"/>
      </g>
    </g>
  </g>
</svg>
