<svg xmlns="http://www.w3.org/2000/svg" xmlns:xlink="http://www.w3.org/1999/xlink" width="58" height="58" viewBox="0 0 58 58">
  <defs>
    <style>
      .cls-1 {
        fill: none;
      }

      .cls-2 {
        clip-path: url(#clip-path);
      }

      .cls-3 {
        clip-path: url(#clip-path-2);
      }

      .cls-4 {
        clip-path: url(#clip-path-3);
      }
    </style>
    <clipPath id="clip-path">
      <rect id="crop" class="cls-1" width="58" height="58"/>
    </clipPath>
    <clipPath id="clip-path-2">
      <path id="Path_44" data-name="Path 44" class="cls-1" d="M52.015,25.8H51.9l-.2.065.378-.086ZM51.9,32.259h0a.457.457,0,0,0,.12,0H51.9ZM32.259,6.1h0a.418.418,0,0,0,0-.115V6.1Zm0,45.8v.115A.418.418,0,0,0,32.259,51.9ZM6.1,25.792H5.924l.382.086ZM5.952,32.26h0Z"/>
    </clipPath>
    <clipPath id="clip-path-3">
      <path id="Path_45" data-name="Path 45" class="cls-1" d="M52.048,32.222h-.033a.891.891,0,0,1-.119,0h-.2a3.194,3.194,0,0,1,0-6.366l.2-.028h.174a3.222,3.222,0,1,1-.028,6.445Zm-4.093,7.209h0a5.854,5.854,0,0,0-2.265-.46,5.983,5.983,0,0,0-5.983,5.985h0a5.8,5.8,0,0,0,.562,2.512,21.31,21.31,0,0,1-5.691,2.44,5.951,5.951,0,0,0-11.157,0h0a21.292,21.292,0,0,1-5.8-2.5h0a5.794,5.794,0,0,0,.534-2.444,5.985,5.985,0,0,0-5.985-5.985,5.85,5.85,0,0,0-2.154.41,21.679,21.679,0,0,1-1.925-4.8,5.956,5.956,0,0,0,0-11.162,21.322,21.322,0,0,1,2.035-4.971,5.962,5.962,0,0,0,8.5-5.418h0a5.9,5.9,0,0,0-.672-2.656,21.343,21.343,0,0,1,5.451-2.3,5.953,5.953,0,0,0,11.158,0,21.288,21.288,0,0,1,5.689,2.444,5.774,5.774,0,0,0-.562,2.508,5.984,5.984,0,0,0,5.983,5.985,5.817,5.817,0,0,0,2.266-.46,21.63,21.63,0,0,1,1.951,4.847,5.956,5.956,0,0,0,0,11.162,21.581,21.581,0,0,1-1.934,4.852Zm-2.265,8.746h0a3.222,3.222,0,1,1,1.93-5.782,3.186,3.186,0,0,1,1.293,2.555h0A3.222,3.222,0,0,1,45.7,48.177ZM32.223,52.058h0a3.222,3.222,0,0,1-6.445,0l.037-.382h0a3.194,3.194,0,0,1,6.366,0v.2a.833.833,0,0,1,0,.115ZM14.675,46.952h0a3.225,3.225,0,1,1,.717-2h0a3.222,3.222,0,0,1-.717,2ZM6.3,32.186H6.1l-.115.037H5.952a3.222,3.222,0,0,1-.032-6.445H6.1l.2.028a3.194,3.194,0,0,1,0,6.366ZM12.622,9.823h0a3.174,3.174,0,0,1,2.348,1.045l.037.037a3.158,3.158,0,0,1,.838,2.135,3.222,3.222,0,0,1-3.223,3.222,3.166,3.166,0,0,1-2.071-.782,3.222,3.222,0,0,1,2.071-5.662ZM29,2.762h0a3.222,3.222,0,0,1,3.222,3.181v.042a.891.891,0,0,1,0,.119v.2a3.194,3.194,0,0,1-6.366,0l-.078-.382A3.222,3.222,0,0,1,29,2.762Zm14.225,8.245h0a3.2,3.2,0,1,1-.755,2.039A3.159,3.159,0,0,1,43.225,11.007Zm9.441,12.046h0a24.046,24.046,0,0,0-2.458-6.108,5.861,5.861,0,0,0,1.468-3.9,5.984,5.984,0,0,0-5.985-5.985,5.916,5.916,0,0,0-3.682,1.3,23.838,23.838,0,0,0-7.052-3.016,5.984,5.984,0,0,0-11.9,0,24.107,24.107,0,0,0-6.9,2.909,5.958,5.958,0,0,0-9.528,4.8h0a5.9,5.9,0,0,0,1.284,3.683h0A23.937,23.937,0,0,0,5.34,23.052a5.984,5.984,0,0,0,0,11.9h0a24.209,24.209,0,0,0,2.407,5.985,5.984,5.984,0,0,0,4.433,9.984,5.9,5.9,0,0,0,3.752-1.345,24.013,24.013,0,0,0,7.13,3.07,5.984,5.984,0,0,0,11.9,0,23.983,23.983,0,0,0,7.052-3.019,5.922,5.922,0,0,0,3.682,1.293,5.985,5.985,0,0,0,5.985-5.985h0a5.858,5.858,0,0,0-1.468-3.9,24.027,24.027,0,0,0,2.458-6.108,5.984,5.984,0,0,0,0-11.894Z"/>
    </clipPath>
  </defs>
  <g id="矢量智能对象" class="cls-2">
    <g id="Group_82" data-name="Group 82">
      <g id="Group_81" data-name="Group 81" class="cls-3">
        <rect id="Rectangle_41" data-name="Rectangle 41" width="59.333" height="59.292" transform="translate(-0.667 -0.644)"/>
      </g>
    </g>
    <g id="Group_84" data-name="Group 84">
      <g id="Group_83" data-name="Group 83" class="cls-4">
        <rect id="Rectangle_42" data-name="Rectangle 42" width="71.151" height="71.123" transform="translate(-6.573 -6.568)"/>
      </g>
    </g>
  </g>
</svg>
