<svg xmlns="http://www.w3.org/2000/svg" xmlns:xlink="http://www.w3.org/1999/xlink" width="56" height="43" viewBox="0 0 56 43">
  <defs>
    <style>
      .cls-1 {
        fill: none;
      }

      .cls-2 {
        clip-path: url(#clip-path);
      }

      .cls-3 {
        clip-path: url(#clip-path-2);
      }

      .cls-4 {
        clip-path: url(#clip-path-3);
      }

      .cls-5 {
        clip-path: url(#clip-path-4);
      }
    </style>
    <clipPath id="clip-path">
      <rect id="crop" class="cls-1" width="56" height="43"/>
    </clipPath>
    <clipPath id="clip-path-2">
      <path id="Path_49" data-name="Path 49" class="cls-1" d="M18.886,40.96l1.091.374C19.617,41.219,19.249,41.1,18.886,40.96Zm2.362-2.2c.036-.076.071-.154.1-.229l.057-.145C21.359,38.5,21.305,38.622,21.248,38.758Zm14.444,2.677,1.033-.335C36.389,41.228,36.042,41.334,35.692,41.436Zm2.594-.82-1.551.5c.514-.167,1.023-.348,1.525-.546Zm-19.507.344-1.329-.44v-.04C17.893,40.625,18.336,40.788,18.779,40.96Zm15.352-2.572c-.051-.048-.084-.092-.126-.137a.152.152,0,0,1,0-.048A.56.56,0,0,0,34.131,38.388Z"/>
    </clipPath>
    <clipPath id="clip-path-3">
      <path id="Path_50" data-name="Path 50" class="cls-1" d="M40.214,36.732c-.232.128-.471.25-.705.369l-.048.027-.1.048-.07.035-.155.076-.475.229h-.031c-.227.1-.443.206-.687.3l-.235.1h-.039l-.089.034c-.2.085-.407.163-.611.238-.1-.2-.2-.4-.3-.6l-.045-.092-.12-.259-.053-.115c-.07-.154-.141-.309-.2-.462l-.027-.067c-.022-.044-.039-.092-.057-.137-.1-.238-.2-.479-.293-.717s0-.032,0-.049v-.052c-.092-.247-.179-.493-.266-.74h0a25.1,25.1,0,0,1,5.256-25.1l.386-.41.262-.269c.311-.312.625-.616.944-.907.181-.172.372-.339.563-.5.111-.1.227-.2.341-.286a.5.5,0,0,1,.08-.066c.1-.086.195-.164.293-.238.381-.3.766-.6,1.166-.881.15-.11.3-.215.443-.317s.443-.29.664-.44a4.314,4.314,0,0,1,.443-.259h0a5.822,5.822,0,0,1,.505-.3c.266-.154.532-.3.807-.44.084-.049.173-.092.262-.137.168-.089.336-.172.505-.252L48.8,3.96c.305-.142.611-.278.921-.406.159-.07.314-.132.475-.193l.473-.185a1.752,1.752,0,0,1,.089.176c.083.164.162.328.239.489.111.22.213.44.311.674.2.44.386.9.554,1.361a24.3,24.3,0,0,1,.748,2.378c.062.238.125.481.178.722s.12.525.168.789.089.467.129.7a.5.5,0,0,0,.031.207c.036.207.067.44.094.63a.53.53,0,0,1,0,.11c.027.172.043.344.061.516s.032.277.041.414q.053.541.075,1.084v1.189h0a25.182,25.182,0,0,1-13.16,22.127Zm-19.059,2.2c.027-.057.053-.115.075-.176s.111-.247.16-.374c.111-.261.216-.52.314-.784.053-.133.1-.264.15-.4l.107-.312a.573.573,0,0,1,.057-.159.257.257,0,0,0,0-.044,25.766,25.766,0,0,1,11.218-.153.425.425,0,0,0,.057.149c.08.211.16.44.248.63.032.083.067.167.1.255l.036.08a.493.493,0,0,0,.08.18c.039.106.089.207.137.314a.539.539,0,0,0,.039.087c.027.062.053.124.085.186a.448.448,0,0,0,.039.087l.08.168c.043.1.093.2.141.3l.053.106h0a25.788,25.788,0,0,1-13.164-.149ZM12.734,9.165c.359.326.709.669,1.051,1.022a25.14,25.14,0,0,1,7.092,17.507v0a25.131,25.131,0,0,1-1,7l-.143.44c-.075.247-.155.493-.243.74s-.155.44-.244.669a.9.9,0,0,1-.053.142c-.075.2-.159.41-.243.612a.092.092,0,0,1-.036.083c-.093.22-.191.44-.293.665-.23-.089-.443-.185-.682-.282l-.066-.03c-.214-.089-.444-.186-.639-.287s-.536-.255-.8-.392c-.159-.078-.323-.163-.482-.25l-.155-.083A25.176,25.176,0,0,1,2.66,14.653V13.535c.027-.656.079-1.322.155-1.948.025-.22.052-.44.088-.66s.075-.489.12-.731c.027-.154.053-.3.089-.44s.053-.282.084-.441A23.628,23.628,0,0,1,3.989,6.54c.062-.2.134-.4.214-.6s.154-.44.239-.625c.025-.071.057-.137.084-.2.066-.163.137-.331.213-.493a.56.56,0,0,1,.045-.1l.053-.128a.316.316,0,0,1,.057-.128l.62.255c.2.08.395.167.589.259.378.168.75.349,1.117.537.213.106.443.22.63.335l.075.039q.943.529,1.843,1.137c.2.137.409.277.608.44M52.4.938,51.857,0,50.824.335h0a27.962,27.962,0,0,0-11.985,7.7c-.3.326-.589.656-.887,1-.195.234-.386.472-.571.71l-.088.119c-.386.5-.753,1.008-1.1,1.528-.182.269-.355.543-.528.82q-.517.833-.97,1.7c-.075.142-.151.286-.221.44-.036.067-.071.137-.1.207s-.129.261-.191.392-.075.154-.111.234c-.071.149-.137.3-.2.44l-.253.589c-.164.4-.314.793-.443,1.194q-.326.9-.585,1.827c-.057.2-.115.41-.168.617-.168.648-.314,1.322-.443,1.96-.045.229-.08.44-.116.691-.027.159-.048.317-.071.477s-.057.44-.079.634-.041.353-.053.529c-.036.286-.057.582-.075.88a3.266,3.266,0,0,1-.027.511,5.088,5.088,0,0,0,0,.639v1.48a6.711,6.711,0,0,0,.045.93,2.1,2.1,0,0,0,.031.44c.027.34.057.674.1,1.013a.709.709,0,0,0,.031.252c.041.348.094.7.151,1.043.036.207.071.415.111.621a1.943,1.943,0,0,0,.075.383l.08.379.066.3c.048.211.1.44.155.639a28.383,28.383,0,0,0-9.516.128h0A27.741,27.741,0,0,0,15.7,8.369,27.681,27.681,0,0,0,4.663,1.357L3.573.986,3.049,2.008h0A27.382,27.382,0,0,0,0,14.653v-.005A27.822,27.822,0,0,0,14.529,39.055h0a27.433,27.433,0,0,0,2.925,1.387c.444.18.887.343,1.33.5l.1.035c.364.124.732.243,1.1.353a28.349,28.349,0,0,0,15.7.1c.35-.1.695-.206,1.041-.316.514-.168,1.023-.349,1.525-.546l.053-.023c.261-.1.518-.206.775-.316l.705-.314.4-.188.253-.124.487-.247c.195-.1.386-.2.577-.3h0A27.766,27.766,0,0,0,52.557,1.22c-.052-.095-.106-.19-.159-.285Z"/>
    </clipPath>
    <clipPath id="clip-path-4">
      <path id="Path_51" data-name="Path 51" class="cls-1" d="M36.735,41.118l-1.033.335C36.042,41.334,36.389,41.228,36.735,41.118Zm-2.6-2.73c-.051-.048-.084-.092-.126-.137a.152.152,0,0,1,0-.048A.56.56,0,0,0,34.131,38.388ZM21.477,38.37l-.127.145c.041-.048.084-.1.127-.145Zm-1.488,2.959-1.1-.369C19.249,41.1,19.617,41.219,19.989,41.329ZM4.976,4.263a1.5,1.5,0,0,0-.127.128c0-.044.073-.083.118-.128Z"/>
    </clipPath>
  </defs>
  <g id="矢量智能对象" class="cls-2">
    <g id="Group_92" data-name="Group 92">
      <g id="Group_91" data-name="Group 91" class="cls-3">
        <rect id="Rectangle_46" data-name="Rectangle 46" width="33.563" height="15.88" transform="translate(11.086 31.879)"/>
      </g>
    </g>
    <g id="Group_94" data-name="Group 94">
      <g id="Group_93" data-name="Group 93" class="cls-4">
        <rect id="Rectangle_47" data-name="Rectangle 47" width="68.762" height="55.137" transform="translate(-6.364 -6.324)"/>
      </g>
    </g>
    <g id="Group_96" data-name="Group 96">
      <g id="Group_95" data-name="Group 95" class="cls-5">
        <rect id="Rectangle_48" data-name="Rectangle 48" width="44.613" height="49.837" transform="translate(-1.515 -2.06)"/>
      </g>
    </g>
  </g>
</svg>
