<svg xmlns="http://www.w3.org/2000/svg" width="113.02" height="70.82" viewBox="0 0 113.02 70.82">
  <defs>
    <style>
      .cls-1 {
        fill: #231f20;
      }
    </style>
  </defs>
  <path id="HairJewelry" class="cls-1" d="M110,29.73a7.06,7.06,0,0,0-3.66,1c.06-.38.12-.76.17-1.14s.12-1,.14-1.18a6.93,6.93,0,0,0-1.91-5.2,7.47,7.47,0,0,0-5.42-2.34,7.39,7.39,0,0,0-7.1,5.55s-.11.49-.13.6A39.67,39.67,0,0,1,89,36.86a6.89,6.89,0,0,0-6-3.52,6.69,6.69,0,0,0-6.7,5.15,33.38,33.38,0,0,1-9.55,17l-2.89,2.77c-1.29-.11-2.61-.19-4-.19-.83,0-1.67,0-2.52.08l-2.78-2.66a33.47,33.47,0,0,1-9.56-17h0a6.65,6.65,0,0,0-6.69-5.08,7,7,0,0,0-6,3.5,39.22,39.22,0,0,1-3.05-9.76,4.929,4.929,0,0,0-.16-.75A7.33,7.33,0,0,0,22,20.89a7.47,7.47,0,0,0-5.42,2.34,6.93,6.93,0,0,0-1.91,5.19,9.3,9.3,0,0,0,.14,1.16c.06.32.11.78.17,1.17a7.06,7.06,0,0,0-3.66-1,7.19,7.19,0,0,0-7.18,7.18,7,7,0,0,0,.23,1.73l.06.21c.15.46.28.81.36,1,3.58,8.9,13.7,13.39,21.72,15.6a30.8,30.8,0,0,0,9.79,6.92c1.23.52,2.53,1,3.86,1.45-7,4.86-12.1,13.07-12.1,25.74v.71l.44.54a2.27,2.27,0,0,0,1.77.86h0c1.41,0,2.23-1.11,3.88-3.29C37.8,83.56,45.4,73.49,59.81,73.49c14.62,0,21.56,9.33,25.28,14.34,1.75,2.34,2.71,3.64,4.25,3.75a2.42,2.42,0,0,0,2.21-1.16c1.58-2.46.65-10.15-3-16.77a29.1,29.1,0,0,0-8.27-9.54C82,63.56,83.52,63,85,62.37a30.91,30.91,0,0,0,9.79-6.92c8-2.21,18.14-6.7,21.7-15.55.1-.24.23-.59.4-1.11l.05-.19a6.77,6.77,0,0,0,.22-1.69A7.19,7.19,0,0,0,110,29.73ZM37.67,59.15a27.39,27.39,0,0,1-9.3-6.82C22.29,50.75,11.36,46.91,8,38.5c-.08-.17-.26-.73-.26-.73a3.5,3.5,0,0,1-.12-.86,3.67,3.67,0,0,1,6.88-1.79l.15.29v.07a21.18,21.18,0,0,0,8.21,8.83,48.59,48.59,0,0,1-4.65-15.24c0-.08-.09-.65-.1-.85A3.76,3.76,0,0,1,22,24.39a3.83,3.83,0,0,1,3.69,2.85s.07.28.08.38c2.54,15.09,14.47,27.7,15.55,26.53.87-.54-6.73-5.8-6.41-13.92a3.39,3.39,0,0,1,3.39-3.39,3.16,3.16,0,0,1,3.27,2.32A37,37,0,0,0,52.12,58a30,30,0,0,0-8.87,3.15,50.819,50.819,0,0,1-5.58-2ZM83.8,73.41a27.16,27.16,0,0,1,4.44,11.88c-3.89-5.22-11.91-15.82-28.4-15.82-14.55,0-23.07,9.1-27.4,14.6,2.36-16.11,15.26-22,27.4-22C73.3,62.06,80.3,68.23,83.8,73.41Zm29.73-35.64s-.18.56-.26.73C109.92,46.91,99,50.75,92.91,52.33a27.39,27.39,0,0,1-9.3,6.82,50.819,50.819,0,0,1-5.58,2A30.08,30.08,0,0,0,69.16,58,37,37,0,0,0,79.72,39.16,3.16,3.16,0,0,1,83,36.84a3.39,3.39,0,0,1,3.39,3.39C86.7,48.35,79.1,53.61,80,54.15c1,1.17,13-11.44,15.52-26.53a2.357,2.357,0,0,1,.08-.38,3.82,3.82,0,0,1,3.69-2.85,3.76,3.76,0,0,1,3.83,3.83,7.139,7.139,0,0,1-.1.85,48.59,48.59,0,0,1-4.65,15.24,21.24,21.24,0,0,0,8.21-8.83.25.25,0,0,1,0-.07l.15-.29a3.67,3.67,0,0,1,6.88,1.79,3.5,3.5,0,0,1-.08.86Z" transform="translate(-4.14 -20.87)"/>
</svg>
