<svg xmlns="http://www.w3.org/2000/svg" xmlns:xlink="http://www.w3.org/1999/xlink" width="34" height="67" viewBox="0 0 34 67">
  <defs>
    <style>
      .cls-1 {
        fill: #337357;
      }

      .cls-2 {
        clip-path: url(#clip-path);
      }

      .cls-3 {
        clip-path: url(#clip-path-2);
      }
    </style>
    <clipPath id="clip-path">
      <rect id="crop" class="cls-1" width="34" height="67"/>
    </clipPath>
    <clipPath id="clip-path-2">
      <path id="Path_52" data-name="Path 52" class="cls-1" d="M17.022,52.133l7.428,7.412L17.022,67,9.594,59.589ZM4.068,8.857a2.755,2.755,0,0,0,1.105,3.706.162.162,0,0,0,.132.044,2.585,2.585,0,0,0,1.15.265,2.735,2.735,0,0,0,2.388-1.412A2.645,2.645,0,0,0,7.87,7.886c-.044-.044-.088-.088-.132-.088A2.653,2.653,0,0,0,4.068,8.857ZM26.218,7.666c-.044.044-.088.088-.132.088a2.684,2.684,0,0,0-.929,3.573,2.649,2.649,0,0,0,2.388,1.412,2.58,2.58,0,0,0,1.15-.265c.044,0,.089-.044.132-.044a2.743,2.743,0,0,0,1.105-3.706A2.793,2.793,0,0,0,26.218,7.666Zm2.653,4.853c-.044,0-.088.044-.132.044a2.7,2.7,0,0,0,.928,5.25,3.9,3.9,0,0,0,.708-.088c.044,0,.088,0,.088-.044a2.7,2.7,0,0,0-1.592-5.161ZM6.5,44.722a2.257,2.257,0,0,0,1.282-.353c.044-.044.088-.044.132-.088a2.7,2.7,0,0,0-2.609-4.721.163.163,0,0,1-.132.044A2.743,2.743,0,0,0,4.068,43.31,2.859,2.859,0,0,0,6.5,44.722ZM4.377,39.649a2.515,2.515,0,0,0,.8-.132c.044,0,.088-.044.132-.044a2.685,2.685,0,0,0,1.68-3.353A2.739,2.739,0,0,0,3.67,34.311a.162.162,0,0,0-.132.044,2.673,2.673,0,0,0-1.769,3.4A2.747,2.747,0,0,0,4.377,39.649ZM3.183,34.267h.4c.044,0,.044,0,.088-.044A2.677,2.677,0,0,0,5.88,31.179a2.735,2.735,0,0,0-2.962-2.338H2.83a2.7,2.7,0,0,0-2.3,3.088A2.637,2.637,0,0,0,3.183,34.267Zm-.4-10.984h.353A2.712,2.712,0,0,0,3.625,17.9c-.044,0-.088,0-.088-.044a2.739,2.739,0,1,0-.752,5.426ZM1.725,14.415a2.7,2.7,0,0,0,1.813,3.4c.044,0,.088,0,.088.044a3.456,3.456,0,0,0,.708.088A2.731,2.731,0,0,0,6.942,16a2.685,2.685,0,0,0-1.68-3.353.153.153,0,0,1-.088-.044A2.826,2.826,0,0,0,1.725,14.415ZM2.786,28.8h.088a2.7,2.7,0,0,0,2.609-2.735A2.725,2.725,0,0,0,2.83,23.37H2.741A2.752,2.752,0,0,0,0,26.105,2.782,2.782,0,0,0,2.786,28.8ZM20.471.122a2.715,2.715,0,0,0-3.4,1.765c-.044.132-.044.264-.089.4,0,.044-.044.088-.044.132a.162.162,0,0,0-.044-.132c-.044-.132-.044-.265-.088-.4a2.726,2.726,0,0,0-5.173,1.72c.044.132.089.221.133.353a2.7,2.7,0,0,0,2.432,1.5,2.774,2.774,0,0,0,.84-.132,2.7,2.7,0,0,0,1.857-2.294,2.7,2.7,0,0,0,1.9,2.25,2.74,2.74,0,0,0,3.272-1.412,2.973,2.973,0,0,0,.132-.353A2.616,2.616,0,0,0,20.471.122ZM9.727,49.134a2.747,2.747,0,0,0,1.946-.794.948.948,0,0,0,.177-.221A2.7,2.7,0,0,0,8,44.369c-.044.044-.133.088-.177.132a2.712,2.712,0,0,0,0,3.838A2.646,2.646,0,0,0,9.727,49.134Zm16.536-.794a2.712,2.712,0,0,0,0-3.838c-.044-.044-.132-.088-.177-.132a2.678,2.678,0,0,0-3.67.132,2.71,2.71,0,0,0-.177,3.662.774.774,0,0,0,.177.22,2.747,2.747,0,0,0,1.945.794A3.531,3.531,0,0,0,26.263,48.34ZM34,26.017h0a2.7,2.7,0,0,0-2.741-2.735H31.17a2.687,2.687,0,0,0-2.609,2.691v.132a2.678,2.678,0,0,0,2.609,2.647h.088A2.724,2.724,0,0,0,34,26.017ZM32.275,37.708a2.7,2.7,0,0,0-1.813-3.4.163.163,0,0,1-.132-.044,2.7,2.7,0,0,0-1.592,5.161c.044,0,.088.044.132.044a2.514,2.514,0,0,0,.8.132A2.7,2.7,0,0,0,32.275,37.708Zm-1.017-8.867H31.17a2.7,2.7,0,0,0-.752,5.338c.044,0,.089,0,.089.044a1.231,1.231,0,0,0,.4.044,2.712,2.712,0,0,0,2.7-2.338A2.768,2.768,0,0,0,31.259,28.841ZM29.977,43.266a2.755,2.755,0,0,0-1.105-3.706.163.163,0,0,0-.132-.044A2.684,2.684,0,0,0,25.2,40.663a2.646,2.646,0,0,0,.973,3.573c.044.044.089.088.133.088a2.67,2.67,0,0,0,1.282.353A2.735,2.735,0,0,0,29.977,43.266Zm.486-25.454c-.044,0-.044,0-.088.044A2.711,2.711,0,0,0,28.164,20.9a2.68,2.68,0,0,0,2.7,2.338h.4a2.742,2.742,0,0,0-.8-5.426ZM7.737,3.828a2.712,2.712,0,0,0,0,3.838c.044.044.132.088.177.132a2.561,2.561,0,0,0,1.725.662A2.722,2.722,0,0,0,11.761,4a.776.776,0,0,0-.177-.221A2.726,2.726,0,0,0,7.737,3.828Zm14.635-.088a.441.441,0,0,0-.177.22,2.7,2.7,0,0,0,2.078,4.412,2.757,2.757,0,0,0,1.768-.662c.044-.044.132-.088.177-.132a2.717,2.717,0,0,0-3.846-3.838Zm-.177,44.424a2.738,2.738,0,0,0-3.272-1.412,2.644,2.644,0,0,0-1.857,2.294,2.815,2.815,0,0,0-1.9-2.294,2.739,2.739,0,0,0-3.272,1.412c-.044.132-.088.22-.132.353a2.707,2.707,0,0,0,1.768,3.4,2.777,2.777,0,0,0,.84.132,2.746,2.746,0,0,0,2.609-1.9,1.285,1.285,0,0,0,.089-.4c0-.044.044-.088.044-.132a.163.163,0,0,0,.044.132c.044.132.044.264.089.4a2.74,2.74,0,0,0,5.217-1.676A.557.557,0,0,1,22.195,48.163Z"/>
    </clipPath>
  </defs>
  <g id="矢量智能对象" class="cls-2">
    <g id="Group_98" data-name="Group 98">
      <g id="Group_97" data-name="Group 97" class="cls-3">
        <rect id="Rectangle_49" data-name="Rectangle 49" class="cls-1" width="37.953" height="70.965" transform="translate(-1.977 -1.982)"/>
      </g>
    </g>
  </g>
</svg>
