<svg xmlns="http://www.w3.org/2000/svg" xmlns:xlink="http://www.w3.org/1999/xlink" width="41.586" height="35.348" viewBox="0 0 41.586 35.348">
  <defs>
    <style>
      .cls-1 {
        fill: #337357;
      }

      .cls-2 {
        clip-path: url(#clip-path);
      }

      .cls-3 {
        clip-path: url(#clip-path-2);
      }
    </style>
    <clipPath id="clip-path">
      <rect id="crop" class="cls-1" width="41.586" height="35.348"/>
    </clipPath>
    <clipPath id="clip-path-2">
      <path id="Path_32" data-name="Path 32" class="cls-1" d="M37.247,31.056H8.84a7.257,7.257,0,0,1-.27-5.334,6.05,6.05,0,0,1,2.813-2.938c1.385.6,2.536,1.282,2.482,4.983a1.743,1.743,0,0,0,1.717,1.769h.026a1.742,1.742,0,0,0,1.742-1.717c.046-3.024-.657-4.885-1.6-6.1a31.571,31.571,0,0,0,9.61-5.084,12.293,12.293,0,0,0,10.258,5.131,15.332,15.332,0,0,0,1.628-.087Zm2.776-12.877a1.756,1.756,0,0,0-1.552-.263,10.762,10.762,0,0,1-2.852.365A8.879,8.879,0,0,1,27.31,13.2a1.743,1.743,0,0,0-2.747-.438A27.1,27.1,0,0,1,11.149,19.21a1.772,1.772,0,0,0-.374-.043h-5.8a7.045,7.045,0,0,1-.256-5.16,5.866,5.866,0,0,1,2.717-2.844c1.334.58,2.438,1.252,2.385,4.828a1.743,1.743,0,0,0,1.716,1.769h.027a1.743,1.743,0,0,0,1.742-1.717c.044-2.908-.595-4.722-1.542-5.938a30.956,30.956,0,0,0,9.326-4.936,12.437,12.437,0,0,0,11.589,4.942v3.981a1.743,1.743,0,0,0,3.487,0v-6.1A1.744,1.744,0,0,0,33.9,6.326c-.294.094-7.238,2.2-10.857-4.6A1.746,1.746,0,0,0,20.3,1.287,26.547,26.547,0,0,1,6.994,7.62a1.743,1.743,0,0,0-.371.09,9.487,9.487,0,0,0-5.106,4.924c-1.083,2.6-.842,5.631.717,9.008a1.744,1.744,0,0,0,1.583,1.013h2.5a8.469,8.469,0,0,0-.95,1.693C4.261,27,4.509,30.085,6.1,33.53a1.747,1.747,0,0,0,1.583,1.013H38.991A1.744,1.744,0,0,0,40.734,32.8V19.581a1.745,1.745,0,0,0-.711-1.4Z"/>
    </clipPath>
  </defs>
  <g id="矢量智能对象" class="cls-2">
    <g id="Group_64" data-name="Group 64">
      <g id="Group_63" data-name="Group 63" class="cls-3">
        <rect id="Rectangle_32" data-name="Rectangle 32" class="cls-1" width="50.279" height="44.135" transform="translate(-4.346 -4.394)"/>
      </g>
    </g>
  </g>
</svg>
