<svg xmlns="http://www.w3.org/2000/svg" xmlns:xlink="http://www.w3.org/1999/xlink" width="45.477" height="38.655" viewBox="0 0 45.477 38.655">
  <defs>
    <style>
      .cls-1 {
        fill: #337357;
      }

      .cls-2 {
        clip-path: url(#clip-path);
      }

      .cls-3 {
        clip-path: url(#clip-path-2);
      }
    </style>
    <clipPath id="clip-path">
      <rect id="crop" class="cls-1" width="45.477" height="38.655"/>
    </clipPath>
    <clipPath id="clip-path-2">
      <path id="Path_26" data-name="Path 26" class="cls-1" d="M28.991,14.117h0A2.083,2.083,0,0,1,31.075,16.2v2.084a2.084,2.084,0,1,1-4.168,0V16.2A2.084,2.084,0,0,1,28.991,14.117Zm-12.506,0h0A2.083,2.083,0,0,1,18.569,16.2v2.084a2.084,2.084,0,1,1-4.168,0V16.2A2.084,2.084,0,0,1,16.485,14.117Zm-.943,11.427h0a1.565,1.565,0,0,1,2.2-.2h0a7.816,7.816,0,0,0,9.986,0,1.563,1.563,0,0,1,2,2.4,10.943,10.943,0,0,1-13.983,0,1.563,1.563,0,0,1-.2-2.2h0Zm7.2-21.849A15.64,15.64,0,0,0,7.82,14.642,1.562,1.562,0,0,1,6.559,15.72h0a3.649,3.649,0,0,0,0,7.215A1.562,1.562,0,0,1,7.82,24.013a15.639,15.639,0,0,0,29.837,0,1.562,1.562,0,0,1,1.261-1.078,3.649,3.649,0,0,0,0-7.215,1.562,1.562,0,0,1-1.261-1.078,15.623,15.623,0,0,0-6.288-8.351c-.815,3.4-3.792,4.86-8.347,4.159A1.563,1.563,0,0,1,23.5,7.36c3.381.521,4.775-.243,4.954-2.586a15.612,15.612,0,0,0-5.712-1.079Zm0-3.127a18.767,18.767,0,0,1,17.61,12.278,6.779,6.779,0,0,1,4.8,6.482h0a6.779,6.779,0,0,1-4.8,6.483,18.767,18.767,0,0,1-35.218,0,6.778,6.778,0,0,1-4.8-6.482h0a6.779,6.779,0,0,1,4.8-6.483A18.767,18.767,0,0,1,22.738.568Z"/>
    </clipPath>
  </defs>
  <g id="矢量智能对象" class="cls-2">
    <g id="Group_52" data-name="Group 52">
      <g id="Group_51" data-name="Group 51" class="cls-3">
        <rect id="Rectangle_26" data-name="Rectangle 26" class="cls-1" width="56.182" height="48.887" transform="translate(-5.353 -5.116)"/>
      </g>
    </g>
  </g>
</svg>
