<svg xmlns="http://www.w3.org/2000/svg" xmlns:xlink="http://www.w3.org/1999/xlink" width="39" height="43" viewBox="0 0 39 43">
  <defs>
    <style>
      .cls-1 {
        fill: none;
      }

      .cls-1, .cls-3 {
        stroke: #337357;
      }

      .cls-2 {
        clip-path: url(#clip-path);
      }

      .cls-3 {
        stroke-miterlimit: 10;
        stroke-width: 2.05px;
      }
    </style>
    <clipPath id="clip-path">
      <rect id="crop" class="cls-1" width="39" height="43"/>
    </clipPath>
  </defs>
  <g id="矢量智能对象" class="cls-2">
    <path id="Path_34" data-name="Path 34" class="cls-3" d="M25.715,29.137a15.885,15.885,0,0,1-12.43,0,.939.939,0,1,0-.742,1.724,17.693,17.693,0,0,0,13.914,0,.938.938,0,1,0-.742-1.724M8.631,13.211a.939.939,0,1,0,1.044,1.561,4.148,4.148,0,0,1,4.6,0,.93.93,0,0,0,.519.158.938.938,0,0,0,.523-1.719,6.037,6.037,0,0,0-6.687,0m15.052,0a.939.939,0,1,0,1.044,1.561,4.148,4.148,0,0,1,4.6,0,.931.931,0,0,0,.52.158.938.938,0,0,0,.523-1.719,6.039,6.039,0,0,0-6.688,0M15.549,38.956l-5.72-4.28a13.193,13.193,0,0,1-5.173-8.93L2.132,4.972c-.008-.074-.012-.149-.013-.224A2,2,0,0,1,4.106,2.737a2.079,2.079,0,0,1,.5.06A61.614,61.614,0,0,0,19.5,4.628,61.62,61.62,0,0,0,34.4,2.8a2,2,0,0,1,2.469,2.175L34.344,25.747a13.193,13.193,0,0,1-5.173,8.93l.564.751-.564-.751-5.721,4.28a6.631,6.631,0,0,1-7.9,0M33.941.977a59.906,59.906,0,0,1-28.884,0A3.882,3.882,0,0,0,.264,5.2L2.789,25.972A15.01,15.01,0,0,0,8.7,36.178l5.72,4.28a8.484,8.484,0,0,0,10.161,0l5.72-4.278a15.016,15.016,0,0,0,5.913-10.206L38.735,5.2A3.872,3.872,0,0,0,34.886.86a3.9,3.9,0,0,0-.944.117"/>
  </g>
</svg>
