<svg xmlns="http://www.w3.org/2000/svg" xmlns:xlink="http://www.w3.org/1999/xlink" width="34" height="35" viewBox="0 0 34 35">
  <defs>
    <style>
      .cls-1 {
        fill: none;
      }

      .cls-2 {
        clip-path: url(#clip-path);
      }

      .cls-3 {
        clip-path: url(#clip-path-2);
      }
    </style>
    <clipPath id="clip-path">
      <rect id="crop" class="cls-1" width="34" height="35"/>
    </clipPath>
    <clipPath id="clip-path-2">
      <path id="Path_23" data-name="Path 23" class="cls-1" d="M15.167,32.208A12.375,12.375,0,1,0,2.792,19.833,12.375,12.375,0,0,0,15.167,32.208Zm14-28.606H24.333a1.375,1.375,0,0,1,0-2.75h8.25a1.375,1.375,0,0,1,1.375,1.375v8.25a1.375,1.375,0,0,1-2.75,0V5.451L26.659,10a15.126,15.126,0,1,1-1.97-1.918L29.168,3.6Z"/>
    </clipPath>
  </defs>
  <g id="矢量智能对象" class="cls-2">
    <g id="Group_46" data-name="Group 46">
      <g id="Group_45" data-name="Group 45" class="cls-3">
        <rect id="Rectangle_23" data-name="Rectangle 23" width="43.917" height="44.106" transform="translate(-4.958 -4.148)"/>
      </g>
    </g>
  </g>
</svg>
