<svg xmlns="http://www.w3.org/2000/svg" xmlns:xlink="http://www.w3.org/1999/xlink" width="40" height="38" viewBox="0 0 40 38">
  <defs>
    <style>
      .cls-1 {
        fill: #337357;
      }

      .cls-2 {
        clip-path: url(#clip-path);
      }

      .cls-3 {
        clip-path: url(#clip-path-2);
      }
    </style>
    <clipPath id="clip-path">
      <rect id="crop" class="cls-1" width="40" height="38"/>
    </clipPath>
    <clipPath id="clip-path-2">
      <path id="Path_30" data-name="Path 30" class="cls-1" d="M35.893,34.122h-.82L33.058,19.488a1.626,1.626,0,0,0-3.113-.4L23.7,34.122H5.527a2.275,2.275,0,0,1-.873-1.563c.03-.279.344-1.287,3.147-2.493,5.02-2.16,16.456-8.281,18.836-19.937a20.383,20.383,0,0,0,9.256,1.462Zm2.67-25.585a1.633,1.633,0,0,0-1.33-.355c-.027.006-6.414,1.117-10.948-1.945a1.627,1.627,0,0,0-2.485.944,3.105,3.105,0,0,0-.075.5C22.567,19,11.3,25.018,6.515,27.078c-.381.164-.739.334-1.078.508a1.735,1.735,0,0,0-.248-.218c-.364-.258-1.139-1.017-1.078-1.593.052-.495.822-1.332,2.823-2.192,9.679-4.164,15.148-10.9,15.589-19.092,5.458,1.558,8.794.762,8.95.723a1.627,1.627,0,0,0-.789-3.156c-.034.009-3.5.776-9.213-1.333a1.627,1.627,0,0,0-2.138,1.12,2.692,2.692,0,0,0-.047.853c.307,7.625-4.537,13.981-13.638,17.9C2.673,21.875,1.066,23.511.873,25.459A5.036,5.036,0,0,0,2.72,29.543a4.593,4.593,0,0,0-1.3,2.7c-.275,2.768,2.313,4.639,2.609,4.843a1.624,1.624,0,0,0,.924.288H24.783a1.626,1.626,0,0,0,1.5-1l4.367-10.511L32.044,35.97a1.627,1.627,0,0,0,1.612,1.4H37.52a1.626,1.626,0,0,0,1.626-1.626V9.783a1.626,1.626,0,0,0-.583-1.246Z"/>
    </clipPath>
  </defs>
  <g id="矢量智能对象" class="cls-2">
    <g id="Group_60" data-name="Group 60">
      <g id="Group_59" data-name="Group 59" class="cls-3">
        <rect id="Rectangle_30" data-name="Rectangle 30" class="cls-1" width="48.292" height="46.75" transform="translate(-4.146 -4.375)"/>
      </g>
    </g>
  </g>
</svg>
